<svg xmlns="http://www.w3.org/2000/svg" xmlns:xlink="http://www.w3.org/1999/xlink" width="500" zoomAndPan="magnify" viewBox="0 0 375 374.999991" height="500" preserveAspectRatio="xMidYMid meet" version="1.0"><defs><clipPath id="a641f8d313"><path d="M 183 23.507812 L 192 23.507812 L 192 337.757812 L 183 337.757812 Z M 183 23.507812 " clip-rule="nonzero"/></clipPath><clipPath id="1ac36107f3"><path d="M 23.488281 169 L 337.738281 169 L 337.738281 178 L 23.488281 178 Z M 23.488281 169 " clip-rule="nonzero"/></clipPath></defs><g clip-path="url(#a641f8d313)"><path fill="#ffffff" d="M 188.496094 23.511719 L 183.421875 172.734375 L 190.171875 337.722656 L 191.304688 171.601562 Z M 188.496094 23.511719 " fill-opacity="0.44" fill-rule="nonzero"/></g><g clip-path="url(#1ac36107f3)"><path fill="#ffffff" d="M 188.496094 169.386719 L 23.515625 176.703125 L 189.628906 177.835938 L 337.738281 174.433594 L 188.523438 169.386719 Z M 188.496094 169.386719 " fill-opacity="0.44" fill-rule="nonzero"/></g><path fill="#ffffff" d="M 267.894531 99.542969 L 185.121094 170.492188 L 98.972656 256.105469 L 189.628906 174.433594 Z M 267.894531 99.542969 " fill-opacity="0.44" fill-rule="nonzero"/><path fill="#ffffff" d="M 103.453125 86.015625 L 185.121094 176.109375 L 260.011719 254.972656 L 189.0625 171.628906 Z M 103.453125 86.015625 " fill-opacity="0.44" fill-rule="nonzero"/></svg>